<svg width="52" height="52" viewBox="0 0 52 52" fill="none" xmlns="http://www.w3.org/2000/svg">
<path d="M0.184223 22.6271L0.514874 20.5214L1.07818 18.3545C1.28024 17.6505 1.56804 17.0078 1.78234 16.4201C1.99052 15.8264 2.2477 15.3428 2.45588 14.9755L2.39465 15.0735L2.90899 14.0818C3.0437 13.788 3.18452 13.4697 3.49068 13.029L3.53966 12.9188C3.84581 12.4903 4.21319 11.817 4.6418 11.2171L5.76845 9.71742V9.6562C6.19706 9.10529 6.69915 8.6156 7.15838 8.10142L6.63792 8.68293C6.77263 8.62172 7.02367 8.31566 7.37269 7.88717C7.71558 7.45869 8.25441 6.99348 8.82998 6.50378C9.33207 6.00184 9.95662 5.63457 10.5689 5.24281L11.4751 4.64905L12.412 4.0859C13.0365 3.7676 11.8425 4.33074 12.7548 3.82268C12.7548 3.76147 12.3262 4.04305 12.5222 3.86554L13.71 3.15547L15.1183 2.46989L15.149 2.40868L15.7 2.16383L16.2511 1.96183L17.292 1.56395C17.9472 1.28238 18.5779 1.11711 19.1167 1.01305L20.5005 0.615166C20.7883 0.541711 21.0883 0.474376 21.97 0.388679L22.6436 0.223408C23.011 0.162196 23.1579 0.162196 23.3049 0.18056C23.4518 0.186681 23.611 0.192802 24.0396 0.156075C23.9784 0.119347 25.105 0.0703754 24.6091 0.058133C26.5256 -0.125504 28.5033 0.149953 30.9954 0.547832C31.5159 0.731469 32.7589 1.0008 33.1385 1.19056C33.2181 1.15383 35.5448 2.0108 34.2284 1.46601C34.1059 1.41705 33.91 1.34359 33.9222 1.36807L33.7753 1.27014C35.1836 1.64965 36.2245 2.23729 37.492 2.86165C37.1062 2.69026 36.6041 2.43317 36.9287 2.62905C37.3267 2.81268 37.7246 3.02081 38.1043 3.24117L37.8777 3.07589C38.4626 3.38057 39.0346 3.70935 39.5922 4.06141L39.3473 3.95123C40.1677 4.45317 40.5106 4.58171 41.3372 5.28565C41.7046 5.6162 40.5719 4.78371 41.374 5.40808C42.6868 6.36906 43.8992 7.46009 44.9927 8.66457C44.8519 8.58499 45.1458 8.90942 45.4336 9.27669L45.4948 9.28893C46.5357 10.6968 45.9969 9.71742 46.9643 11.1498L47.0868 11.4436C47.4787 12.1169 47.6072 12.2883 47.742 12.4842C47.8767 12.6678 48.0297 12.8821 48.391 13.6778C48.0604 13.0657 48.1583 13.433 48.5563 14.1798L48.4951 13.9655L48.8931 14.8103C48.8012 14.5471 48.887 14.6511 49.1686 15.2755L49.0278 14.8348C49.187 15.2388 49.3339 15.6489 49.4748 16.059C49.9034 16.9772 50.332 18.5075 50.4912 18.8931C50.4912 18.8931 50.6382 19.4134 50.779 19.9949C50.9014 20.5826 51.0239 21.2375 51.0239 21.4885C50.9933 21.06 51.2076 22.2231 51.1954 21.8864L51.4219 24.7634V24.6409C51.5138 25.8652 51.379 26.918 51.3239 27.9342C51.3117 28.4422 51.1831 28.9319 51.1158 29.44L50.8831 31.007C50.8586 30.8968 50.5953 32.0293 50.6014 31.7416C50.4514 32.2583 50.3146 32.7788 50.1912 33.3025L49.7381 34.6369C49.5972 35.0409 49.4687 35.402 49.3462 35.702C49.1992 35.9958 49.0523 36.2223 48.9176 36.3876C48.4767 37.2751 48.4277 37.4894 48.2257 37.9424C47.3072 39.4604 47.0317 39.9807 46.1806 41.0764C45.7214 41.6273 45.6295 41.7008 44.7723 42.6496C45.0784 42.368 44.7233 42.7536 44.4049 43.1087C44.6131 42.8883 44.6927 42.8271 44.2824 43.3107C44.2212 43.3719 44.1171 43.4637 44.0253 43.5555C44.0253 43.5616 44.0069 43.58 44.0191 43.5739C43.7497 43.8799 43.615 43.9656 43.5905 43.9779C43.5722 43.984 43.6701 43.9044 43.7987 43.7636C43.7803 43.7759 43.7987 43.7453 43.8599 43.6535C43.3089 44.2656 42.1455 45.2144 42.1271 45.3368C40.229 46.8242 38.7594 47.7241 36.9409 48.581C36.7572 48.7034 37.1858 48.5321 37.7185 48.2933L36.4327 48.9054C36.4633 48.9422 37.1797 48.5749 37.5777 48.3974C37.2103 48.5994 36.8184 48.7892 36.4143 48.9789C36.0163 49.1625 35.6183 49.3645 35.1897 49.4992L33.8732 49.9522C33.6467 50.0318 33.4263 50.1236 33.1997 50.197L32.4894 50.399L32.0792 50.4602L31.969 50.497C31.969 50.4725 31.5404 50.5582 31.2465 50.6194C31.124 50.6806 31.124 50.699 31.0505 50.7418C30.977 50.7847 30.8056 50.8459 30.3158 50.9071C29.5504 51.0601 28.1298 51.2621 27.1073 51.2315C27.6583 51.1948 27.4747 51.1825 27.242 51.1703C26.7521 51.1948 26.4705 51.2499 26.0908 51.2499L26.0541 51.2988C26.0235 51.2805 25.748 51.2927 25.4541 51.2805C25.0867 51.2682 24.6764 51.2438 24.5846 51.2315C24.3029 51.2682 25.3438 51.2927 25.4663 51.3233C24.4866 51.305 24.2417 51.2805 23.9968 51.2621C23.7518 51.2438 23.5069 51.2376 22.5272 51.1213C21.4863 50.9377 22.7232 51.0907 22.2333 50.9744C21.3149 50.8398 20.4393 50.6378 19.4045 50.4113L19.7412 50.4419C18.0697 49.9889 17.0961 49.6461 15.9939 49.2544C13.0426 47.9199 11.7078 46.7079 11.0343 46.1938C10.3791 45.6428 10.471 45.6245 10.869 45.8693C11.2792 46.0897 11.9956 46.5427 12.6263 46.9344C13.2631 47.3017 13.8203 47.5894 13.8203 47.5894C16.0368 48.7096 17.8186 49.3401 19.7474 49.8542C20.7148 50.0991 21.7251 50.3133 22.8701 50.4664C24.009 50.601 25.2887 50.7235 26.7705 50.6133C27.4195 50.5643 28.0135 50.5765 28.5462 50.4786L30.0463 50.2338L30.7199 50.1113C30.9342 50.0501 31.1485 49.9889 31.3567 49.9399L32.5813 49.6094C32.9915 49.5176 33.3773 49.3645 33.7814 49.2054L35.0672 48.7279C35.5265 48.5688 35.9735 48.2995 36.4878 48.073C36.996 47.8281 37.5593 47.5833 38.1226 47.216C38.6615 46.8732 39.2432 46.561 39.7759 46.1754L41.3679 44.994C42.3598 44.1248 43.364 43.2678 44.1845 42.3007C44.3988 42.0925 44.6498 41.8354 44.907 41.5539L45.6417 40.5745C45.8867 40.2317 46.1683 39.9011 46.3949 39.5461L47.0256 38.5667L47.2705 38.077C47.5644 37.6853 47.8093 37.1588 48.0052 36.712L47.9807 36.7365C48.3236 36.0937 48.6849 35.3531 48.7951 35.0103L48.7706 35.0348L49.0768 34.2084L49.0155 34.3431C49.5421 33.18 49.7993 31.8946 50.0871 30.7744L50.1177 30.8785L50.3504 29.287C50.4116 28.8217 50.5157 28.4177 50.5341 28.0137C50.5708 27.1996 50.6565 26.4222 50.6259 25.3082L50.6137 25.3388C50.6565 23.9309 50.5157 22.8168 50.3075 21.7089C50.1054 20.6315 49.8483 19.5481 49.4809 18.1953C49.5115 18.3361 49.3829 17.9627 49.3768 17.9933C48.9849 16.7078 48.3971 15.4101 48.4828 15.3489C48.0726 14.4614 48.1032 14.645 48.0175 14.5532C48.0665 14.5348 47.6991 13.7697 47.3133 13.1086C47.3746 13.2126 47.4236 13.3167 47.4725 13.4146C47.1174 12.778 46.7378 12.1598 46.3275 11.5538L46.6337 11.8598C45.9601 10.9111 46.3888 11.6762 45.7581 10.758L45.8193 10.7274C44.8396 9.4542 44.1232 8.81759 42.9782 7.77087C40.6515 5.54886 37.8349 3.66965 34.7733 2.44541C31.7241 1.22117 28.4666 0.651891 25.4663 0.755951L25.203 0.817167C25.0928 0.902864 23.5498 0.786558 23.3232 0.866134C23.0906 0.853891 22.8579 0.89062 22.6252 0.915104C22.4415 0.957953 22.0251 1.03753 22.3803 1.0008C21.7435 1.09874 21.7251 1.09262 21.2659 1.13547L20.5924 1.2885C18.1309 1.90062 16.049 2.53111 13.6733 3.78596C12.3262 4.64293 10.3301 5.84881 8.64016 7.49541L7.98499 8.08305L7.39106 8.72577C7.0053 9.15426 6.59506 9.55827 6.23992 9.98675C5.57863 10.8743 4.89285 11.6517 4.46424 12.4169C3.06818 14.4369 2.05175 16.9466 1.44557 19.5358L1.21289 20.5152C1.13329 20.8397 1.11492 21.1763 1.05981 21.4946C0.980217 22.1557 0.845512 22.8046 0.814896 23.4534L0.716927 25.4122C0.68631 25.7366 0.704685 26.0549 0.704685 26.3732C0.704685 26.6915 0.704685 27.0099 0.723057 27.322C0.736622 27.4399 0.742756 27.5585 0.741425 27.6771V27.9097C0.875767 29.4359 1.15251 30.9463 1.56804 32.421C1.56804 32.421 1.92318 33.7677 2.6212 35.451C3.29474 37.1466 4.4275 39.1115 5.4378 40.5194C6.43586 41.9273 7.23798 42.8454 6.96856 42.6863C6.8461 42.6006 6.43586 42.2578 5.7562 41.4927C5.07042 40.7275 4.09073 39.5339 3.00083 37.6608L3.03757 37.771C2.40689 36.6447 1.9844 35.6897 1.64763 34.7899C1.48231 34.3431 1.32924 33.9207 1.21902 33.4922C1.09656 33.0637 0.986351 32.6475 0.900627 32.2068C0.692444 31.9619 0.423031 30.1439 0.306694 29.5563V29.6175C0.15974 28.0566 -0.121918 26.3977 0.0617752 24.8797C0.0495262 24.9409 0.0189095 24.9715 0.000541687 25.3204L0.184223 22.6087V22.6271Z" fill="#F48137"/>
<path d="M26.0851 51.3166L26.0974 51.3044C26.1035 51.3044 26.1035 51.3105 26.0851 51.3166ZM25.6871 4.77701C25.5157 4.77701 25.381 4.64234 25.381 4.47095V2.32852C25.381 2.15713 25.5157 2.02246 25.6871 2.02246C25.8586 2.02246 25.9933 2.15713 25.9933 2.32852V4.47095C25.9917 4.55163 25.959 4.62857 25.9019 4.68563C25.8448 4.74269 25.7679 4.77544 25.6871 4.77701ZM25.6871 47.0501C25.8586 47.0501 25.9933 47.1848 25.9933 47.3562V49.4986C25.9933 49.67 25.8586 49.8047 25.6871 49.8047C25.5157 49.8047 25.381 49.67 25.381 49.4986V47.3562C25.381 47.1848 25.5157 47.0501 25.6871 47.0501ZM2.08279 26.2196C1.91134 26.2196 1.77663 26.085 1.77663 25.9136C1.77663 25.7422 1.91134 25.6075 2.08279 25.6075H4.22585C4.3973 25.6075 4.53201 25.7422 4.53201 25.9136C4.53201 26.085 4.3973 26.2196 4.22585 26.2196H2.08279ZM49.2915 25.6075C49.4629 25.6075 49.5977 25.7422 49.5977 25.9136C49.5977 26.085 49.4629 26.2196 49.2915 26.2196H47.1484C46.977 26.2196 46.8423 26.085 46.8423 25.9136C46.8423 25.7422 46.977 25.6075 47.1484 25.6075H49.2915ZM16.3189 31.9307L16.276 32.0164C16.0495 32.2001 15.7862 32.249 15.5412 32.4265C15.2841 32.702 14.6473 32.9897 14.286 33.1488C13.7533 33.3447 13.3676 33.9446 12.8165 34.1282C12.8042 34.1466 12.7553 34.1527 12.7553 34.1466L12.3144 34.4282C12.3144 34.4282 10.1713 35.7871 11.4694 34.2201L11.4511 34.2139C11.6715 34.0303 11.8184 33.9262 12.0327 33.8956C12.0021 33.7916 12.2287 33.761 12.2654 33.6998L12.2532 33.6936C12.4369 33.6692 12.5226 33.4488 12.7063 33.4182C12.694 33.4121 12.6757 33.3937 12.645 33.4121C12.7553 33.3508 12.9083 33.2896 12.89 33.2284C13.1471 33.0876 13.4778 32.8489 13.686 32.8367L13.6676 32.8305C13.7901 32.8305 13.7901 32.7693 13.9125 32.7326C13.9125 32.7204 13.9186 32.7142 13.9186 32.7142C14.0533 32.7081 14.2125 32.5429 14.3044 32.5184L14.286 32.4816L14.4881 32.3592L14.4269 32.4204C14.5126 32.5 14.5371 32.2674 14.7208 32.2368C14.8432 32.145 15.1126 32.2674 15.2228 32.1327C15.3147 32.1388 15.1188 32.096 15.2412 32.0715C15.2106 32.0225 15.18 32.0715 15.18 32.0103C15.2902 31.9736 15.3025 31.8634 15.4494 31.8267L15.431 31.7838C15.6331 31.7593 15.6943 31.5512 15.8413 31.5512C16.025 31.49 15.878 31.3676 16.0862 31.3431L16.1168 31.2513C16.178 31.1901 16.2087 31.2819 16.2699 31.2084C16.2454 31.1778 16.3556 31.1227 16.2883 31.1166C16.4352 30.9513 16.6985 30.9636 16.8822 30.731C16.974 30.7616 17.0659 30.6514 17.1394 30.6698C17.1271 30.6391 17.3843 30.5167 17.2006 30.5473C17.1884 30.5473 17.1639 30.5657 17.1761 30.5718L17.1394 30.5412C17.2312 30.3882 17.4088 30.431 17.5374 30.3331C17.5068 30.3698 17.4516 30.3943 17.5006 30.4065L17.6231 30.327L17.5802 30.3086L17.7517 30.1739V30.2351C17.8313 30.1556 17.8129 30.0699 17.9599 30.0638C18.0211 30.0638 17.8986 30.1678 18.0088 30.125C18.136 29.9941 18.2732 29.8734 18.4191 29.7638C18.4313 29.825 18.4803 29.7883 18.5232 29.7699L18.5048 29.7271C18.7007 29.6781 18.5109 29.6047 18.7007 29.5435L18.762 29.5802C18.9579 29.5679 18.7926 29.4578 19.0191 29.4578C18.9579 29.4884 19.0436 29.5618 19.111 29.4945L19.0681 29.47C19.1171 29.4516 19.1416 29.4578 19.1661 29.4333C19.1294 29.4271 19.1171 29.3843 19.1845 29.3537L19.111 29.3353L19.2763 29.3292C19.3375 29.2313 19.5212 29.1884 19.5335 29.1088C19.5335 29.1088 19.7172 28.9558 19.8029 28.9864C19.7417 28.9742 19.8458 28.8946 19.7845 28.864C19.8641 28.8701 20.0294 28.8028 20.0723 28.7293H20.0601C20.2621 28.5457 20.4887 28.5457 20.6724 28.3621C20.6907 28.411 20.7826 28.3192 20.7948 28.3927C21.0397 28.3192 21.1132 28.0254 21.2969 28.1662C21.401 28.1172 21.3888 28.056 21.4316 28.0131H21.401L21.7806 27.7928C21.8602 27.7683 21.9215 27.8418 22.0256 27.7499C21.9643 27.7438 22.0194 27.7193 22.0623 27.6887C22.0317 27.701 22.0133 27.6948 22.0623 27.6275C22.0745 27.6336 22.0929 27.6336 22.1113 27.6275C22.1909 27.5847 22.1725 27.603 22.148 27.6336C22.1541 27.6397 22.1541 27.6459 22.148 27.6642C22.2093 27.5724 22.3684 27.5296 22.344 27.4684C22.5766 27.3459 22.7726 27.297 22.9808 27.2051C22.9869 27.1623 22.9195 27.1623 22.8583 27.1868L22.9991 27.1133C22.9746 27.0705 22.9073 27.1378 22.8583 27.1562C22.9808 26.9909 23.2257 27.0215 23.3788 26.8501H23.44H23.4461C23.4584 26.8685 23.5073 26.8685 23.5441 26.8562C23.5502 26.795 23.4828 26.7705 23.5869 26.7154C23.6114 26.6726 23.6665 26.6542 23.7278 26.6236C23.7216 26.6114 23.7155 26.593 23.7033 26.5808L23.7645 26.5869C23.7461 26.4339 23.7033 26.3543 23.642 26.2686C23.6727 25.9625 23.7645 25.8279 23.838 25.7605C23.9115 25.6993 23.9604 25.6993 24.0217 25.7361C24.1135 25.7973 24.1625 25.9564 24.1686 25.9564C24.3339 26.2441 24.2421 26.4461 24.4625 26.795C24.7319 27.0399 24.8544 27.0093 25.1544 27.1868C25.3075 27.248 25.479 27.297 25.6443 27.3092C25.7239 27.3949 25.8647 27.3153 25.9627 27.3582L25.9933 27.3092C26.03 27.3276 26.0729 27.3337 26.0974 27.3031L26.0913 27.2908C26.1525 27.3092 26.1954 27.2786 26.226 27.2847V27.2725L26.2872 27.2541L26.2688 27.2419C26.3607 27.248 26.4525 27.2113 26.5138 27.1623L26.5321 27.2113C26.6546 27.0766 26.7648 27.1317 26.8383 26.9664H26.826C27.071 26.9297 26.9669 26.691 27.1812 26.5991C27.1567 26.6114 27.1628 26.5747 27.1506 26.5685C27.2118 26.5073 27.2546 26.4094 27.3587 26.4461C27.3894 26.3849 27.3526 26.3849 27.3159 26.3543C27.3587 26.3727 27.3955 26.3237 27.42 26.2686L27.3955 26.287C27.42 26.238 27.4383 26.189 27.4567 26.1401L27.5302 26.2013C27.5302 26.1094 27.4322 26.1523 27.4689 26.0788L27.5302 26.0972C27.5363 25.9748 27.4383 25.8891 27.3894 25.7789C27.3832 25.5585 27.3832 25.3259 27.3281 25.0933C27.2669 24.8668 27.1444 24.6526 26.9485 24.5424L26.8995 24.5669C26.8383 24.6159 26.8934 24.4078 26.8383 24.4445L26.826 24.3833C26.8077 24.3833 26.7648 24.3833 26.7832 24.4078C26.7464 24.3833 26.7526 24.371 26.7403 24.3343L26.6791 24.3465C26.5138 24.2853 26.4219 24.1323 26.2382 24.0894C26.0055 24.1139 25.6075 23.9976 25.3443 24.016C25.1606 23.9976 24.9769 24.1201 24.8544 24.2608C24.7319 24.4016 24.6095 24.5485 24.4564 24.6281C24.4564 24.6404 24.4197 24.6526 24.4135 24.6465C24.3504 24.7333 24.2951 24.8254 24.2482 24.9219C24.2543 24.9219 24.1992 25.0076 24.1503 25.1239C24.089 25.2464 24.0523 25.3933 23.9972 25.5157C23.9543 25.6381 23.8931 25.7299 23.8012 25.6993C23.7216 25.6748 23.5747 25.5341 23.5073 25.1056L23.489 25.1117C23.5073 24.8668 23.5747 24.7138 23.7216 24.6036C23.642 24.5302 23.8135 24.42 23.8196 24.3588H23.8074C23.9543 24.2853 23.9421 24.0711 24.1013 24.016C24.089 24.016 24.0707 23.9915 24.04 24.016C24.1258 23.9548 24.2482 23.8752 24.2237 23.8201C24.4258 23.6671 24.7381 23.4712 24.9279 23.5141L24.9095 23.5018H24.9218C24.8238 23.2325 24.7381 23.0733 24.6768 22.6816C24.6156 22.4367 24.585 22.1796 24.5421 21.9348C24.5911 21.8124 24.4809 21.6287 24.5115 21.4757L24.4503 21.4328C24.4625 21.3839 24.4625 21.3227 24.4319 21.2859H24.4197C24.438 21.2125 24.4013 21.139 24.4074 21.1023L24.3952 21.1084L24.3829 21.0227L24.3707 21.0411C24.3753 20.9198 24.3544 20.7988 24.3095 20.6861H24.3707C24.2605 20.4657 24.3523 20.3555 24.236 20.1657L24.2237 20.1719C24.3033 19.8781 24.04 19.774 24.1013 19.4741C24.0951 19.5108 24.0707 19.4679 24.0584 19.4679C24.0462 19.3455 24.0217 19.2047 24.1196 19.1802C24.1013 19.0884 24.0707 19.119 24.0278 19.1068C24.0707 19.0945 24.0768 19.015 24.0584 18.9415V18.9782L24.0278 18.7701L24.1196 18.7946C24.0707 18.6905 24.0094 18.7885 24.0094 18.6722L24.0707 18.6599C24.0217 18.513 23.8992 18.4457 23.8135 18.311C23.6543 17.7111 23.691 17.0256 23.4461 16.4869L23.3849 16.4747C23.3053 16.4808 23.4645 16.291 23.391 16.291L23.4094 16.2176C23.391 16.1992 23.3665 16.1686 23.3604 16.2053C23.342 16.1441 23.3543 16.1441 23.3726 16.0951L23.3114 16.0339C23.2196 15.8013 23.2685 15.581 23.1889 15.33C23.0236 15.0484 22.993 14.4608 22.9746 14.1241C22.9869 13.6344 22.5644 13.1692 22.595 12.6673C22.5828 12.655 22.595 12.606 22.6073 12.606L22.5032 12.1776C22.5032 12.1776 22.0133 10.0963 22.993 11.541L23.0052 11.5287C23.0971 11.7552 23.14 11.896 23.091 12.0796C23.2012 12.0857 23.1522 12.2633 23.1889 12.3245V12.3184C23.14 12.4775 23.3114 12.5999 23.2808 12.7468C23.2869 12.7407 23.3175 12.7285 23.3114 12.6979C23.3175 12.8019 23.3298 12.9427 23.391 12.9427C23.4277 13.1876 23.5318 13.5181 23.4645 13.6956H23.4767C23.4339 13.7997 23.489 13.818 23.4828 13.916C23.489 13.9221 23.4951 13.9282 23.5012 13.9221C23.4583 14.0323 23.5502 14.2037 23.5441 14.2894L23.5869 14.2833L23.6176 14.4791L23.5931 14.4179C23.489 14.4669 23.691 14.5404 23.6543 14.6995C23.6971 14.8219 23.4828 15.0056 23.5686 15.128C23.5318 15.2014 23.642 15.0545 23.6298 15.1586C23.691 15.1464 23.6543 15.0974 23.7094 15.1219C23.7033 15.2198 23.8012 15.2626 23.789 15.3912L23.8319 15.3851C23.7829 15.5565 23.9543 15.6605 23.8931 15.7768C23.8931 15.9421 24.0462 15.8503 23.9972 16.0339L24.0707 16.0829C24.0952 16.1441 24.0094 16.1441 24.0523 16.2176C24.089 16.2053 24.1013 16.3094 24.1319 16.2543C24.2299 16.4196 24.1258 16.6216 24.2788 16.8358C24.2176 16.897 24.285 17.0072 24.236 17.0562C24.2666 17.0562 24.2972 17.2888 24.3339 17.1419C24.3401 17.1296 24.3339 17.1113 24.3217 17.1113L24.3646 17.0868C24.4748 17.2092 24.3707 17.3316 24.4135 17.4663C24.3891 17.4296 24.3829 17.3806 24.3523 17.4173L24.3829 17.5397L24.4135 17.5091L24.4748 17.6928L24.4258 17.6805C24.4687 17.7662 24.5483 17.7785 24.5115 17.8887C24.487 17.9499 24.4319 17.8274 24.438 17.9131C24.4993 18.0233 24.5789 18.1886 24.6217 18.3416C24.5605 18.3416 24.5789 18.3784 24.5789 18.4212H24.6217C24.5972 18.5926 24.7319 18.4579 24.7197 18.6293L24.7503 18.611L24.6646 18.6722C24.6034 18.8374 24.7748 18.7334 24.6891 18.917C24.683 18.8558 24.585 18.9109 24.6278 18.9782L24.6646 18.9476C24.6646 18.9905 24.6523 19.0088 24.6646 19.0394C24.683 19.0088 24.7258 19.015 24.7258 19.0762L24.7687 19.015L24.7075 19.1496C24.7687 19.2292 24.7503 19.3945 24.8177 19.4128C24.8177 19.4128 24.8911 19.5965 24.836 19.6577C24.8667 19.6087 24.9095 19.7189 24.9585 19.6699C24.9218 19.7311 24.9156 19.8903 24.983 19.9393L24.9891 19.927C25.0871 20.1413 25.0014 20.3249 25.1116 20.5147C25.0503 20.5147 25.1116 20.6187 25.0381 20.6065C25.0197 20.8268 25.2585 20.9554 25.0687 21.0778C25.081 21.1758 25.1422 21.1819 25.1606 21.2247L25.1667 21.2002L25.2279 21.5675C25.2218 21.6287 25.1299 21.6716 25.1789 21.7817C25.2095 21.7328 25.2095 21.7879 25.2218 21.8307C25.2218 21.8001 25.234 21.7879 25.2708 21.843C25.2585 21.8552 25.2585 21.8674 25.2524 21.8797H25.2647C25.2647 21.9531 25.2524 21.9409 25.2402 21.9103C25.234 21.9103 25.2279 21.9103 25.2157 21.9042C25.2769 21.9654 25.2585 22.1184 25.3259 22.1123C25.3565 22.3388 25.3259 22.5102 25.3381 22.6999C25.3749 22.7122 25.3994 22.6632 25.3994 22.6081L25.4177 22.7428C25.4667 22.7305 25.43 22.6632 25.43 22.6204C25.5402 22.7611 25.4239 22.957 25.5341 23.1223L25.5035 23.1713L25.5096 23.1835C25.4912 23.1896 25.4728 23.2325 25.4728 23.2631C25.5218 23.2814 25.5708 23.2386 25.5831 23.3243C25.5953 23.3365 25.5892 23.361 25.5953 23.3855H25.6565L25.5953 23.3977V23.4039C25.632 23.4834 25.7423 23.3182 25.877 23.4039C26.0178 23.3978 26.1035 23.661 26.2321 23.6487C26.275 23.7099 26.2015 23.5508 26.2811 23.612C26.2994 23.5508 26.2505 23.563 26.2811 23.5263C26.3607 23.5753 26.4464 23.5079 26.5444 23.5875L26.5627 23.5447C26.673 23.6793 26.8566 23.6059 26.9056 23.7283C27.0158 23.8385 27.071 23.6671 27.1506 23.8507L27.2424 23.8446C27.3036 23.8875 27.2302 23.9364 27.3036 23.967C27.3281 23.9364 27.4016 24.016 27.3894 23.9548C27.573 24.0466 27.573 24.2792 27.7935 24.4322C27.7567 24.5179 27.8547 24.6036 27.818 24.6648C27.8547 24.6526 27.9221 24.8852 27.9404 24.7261C27.9404 24.7138 27.9282 24.6954 27.9221 24.7016L27.9527 24.671C28.0874 24.7689 28.0139 24.9281 28.0568 25.0566C28.0323 25.0199 28.02 24.9648 27.9955 25.0137L28.0323 25.1362L28.0629 25.0994C28.0874 25.1607 28.1119 25.2219 28.1241 25.2831L28.0751 25.2647C28.1119 25.3504 28.1976 25.3749 28.1364 25.4912C28.0996 25.5402 28.0751 25.4116 28.0568 25.5096C28.0996 25.632 28.1486 25.8156 28.1425 25.9809C28.0935 25.9625 28.0813 26.0054 28.069 26.0421L28.1119 26.0544C28.02 26.2135 28.2037 26.1339 28.118 26.2992L28.0568 26.3115C27.9343 26.4339 28.1302 26.4216 27.9527 26.5441C27.9833 26.4828 27.867 26.4828 27.8608 26.5624H27.9098C27.8853 26.5991 27.867 26.6053 27.8608 26.6359C27.8914 26.6236 27.9221 26.6481 27.8914 26.6971L27.9527 26.6787L27.8302 26.7583C27.8302 26.8685 27.6955 26.9664 27.7261 27.0338C27.7261 27.0338 27.622 27.2174 27.5424 27.2174C27.6037 27.2113 27.5363 27.3092 27.6037 27.3153C27.5302 27.3276 27.3955 27.4194 27.3771 27.499H27.3894C27.2424 27.7071 27.022 27.701 26.8689 27.8662C26.8505 27.8173 26.7648 27.8907 26.7587 27.8173C26.5444 27.854 26.428 28.0988 26.2994 27.9152C26.2015 27.9275 26.2015 27.9948 26.1525 28.0131L26.177 28.0193L25.8096 28.0499C25.7484 28.0315 25.73 27.9397 25.6137 27.9581C25.6504 28.0009 25.6014 27.9887 25.5524 27.9887C25.5831 27.9948 25.5892 28.0131 25.5279 28.0315C25.5218 28.0193 25.5096 28.0131 25.4973 28.007C25.4973 28.007 25.4912 28.0131 25.4973 28.0193C25.4239 28.0009 25.4361 27.9887 25.4728 27.9887C25.4728 27.9825 25.4728 27.9764 25.4851 27.9642C25.4055 28.007 25.2769 27.9275 25.2524 27.9948C25.032 27.9336 24.9034 27.8111 24.7503 27.7132C24.7197 27.7377 24.7442 27.7744 24.7871 27.8173L24.6646 27.7561C24.6462 27.7989 24.7258 27.8173 24.7564 27.8418C24.5727 27.8418 24.4993 27.6275 24.3156 27.5785L24.3095 27.5173H24.2972C24.3095 27.499 24.2972 27.4561 24.2788 27.4316C24.2299 27.45 24.2176 27.5112 24.1564 27.4439C24.0952 27.4316 24.0339 27.3337 24.0033 27.2602C23.7278 27.4745 23.5747 27.6275 23.1583 27.854C22.9134 28.0131 22.6317 28.1601 22.3868 28.3008C22.2276 28.307 22.0684 28.4967 21.897 28.5273L21.8664 28.5885C21.8051 28.6008 21.7439 28.6191 21.7072 28.6681H21.7194C21.6337 28.6865 21.5602 28.7477 21.5173 28.7599H21.5296L21.4439 28.8089L21.4684 28.815C21.3275 28.864 21.1989 28.9375 21.101 29.0231L21.0826 28.9742C20.8744 29.1701 20.7275 29.1333 20.5499 29.3292H20.5621C20.2131 29.3782 20.1825 29.6781 19.8274 29.7393C19.8702 29.7332 19.8274 29.7699 19.8335 29.7822C19.6988 29.8434 19.5518 29.9291 19.4967 29.8434C19.4049 29.9046 19.4355 29.9168 19.4478 29.9658C19.4233 29.9291 19.3253 29.9597 19.2641 30.0025H19.3069L19.0865 30.125L19.0804 30.027C18.9824 30.1188 19.1049 30.1372 18.9885 30.1801L18.9518 30.1189C18.8048 30.229 18.7681 30.3759 18.6456 30.5106C18.0333 30.9207 17.2741 31.1839 16.7597 31.6492V31.7104C16.7904 31.7838 16.5393 31.7104 16.5577 31.7838H16.472C16.4597 31.8083 16.4291 31.845 16.472 31.845C16.3862 31.9062 16.374 31.894 16.3189 31.9062V31.9307Z" fill="#F48137"/>
</svg>
