<svg width="34" height="34" viewBox="0 0 34 34" fill="none" xmlns="http://www.w3.org/2000/svg">
<g clip-path="url(#clip0_768_2683)">
<path d="M33.087 16.4303C32.6774 16.4303 32.3456 16.7623 32.3456 17.1717C32.3456 25.6332 25.4616 32.5173 17.0001 32.5173C8.53856 32.5173 1.65454 25.6332 1.65454 17.1717C1.65454 8.71019 8.53856 1.82617 17.0001 1.82617C19.4966 1.82617 21.9744 2.43891 24.1657 3.59825C24.5275 3.78981 24.9761 3.65143 25.1675 3.28966C25.359 2.92779 25.2209 2.47914 24.859 2.28768C22.4549 1.01575 19.7373 0.343506 17.0001 0.343506C7.72102 0.343506 0.171875 7.89265 0.171875 17.1717C0.171875 26.4508 7.72102 33.9999 17.0001 33.9999C26.2792 33.9999 33.8283 26.4508 33.8283 17.1717C33.8283 16.7623 33.4964 16.4303 33.087 16.4303Z" fill="#F48137"/>
<path d="M22.8973 5.54753C22.4879 5.55633 22.1633 5.89527 22.172 6.30458C22.1807 6.70846 22.5109 7.03 22.9129 7.03C22.9183 7.03 22.9237 7.03 22.9291 7.0298L28.3597 6.91307C28.5562 6.90892 28.7431 6.82668 28.8791 6.68474C29.0151 6.5428 29.0892 6.35262 29.0849 6.15602L28.9681 0.725509C28.9593 0.316194 28.6161 -0.0110797 28.211 0.000287393C27.8016 0.00908454 27.477 0.348022 27.4858 0.757337L27.5867 5.44671L22.8973 5.54753Z" fill="#F48137"/>
<path d="M19.0334 23.0694C19.4429 23.0694 19.7747 22.7375 19.7747 22.3281V19.7995H21.5487C21.9582 19.7995 22.29 19.4676 22.29 19.0581C22.29 18.6487 21.9582 18.3168 21.5487 18.3168H19.7747V12.0153C19.7747 11.6951 19.5692 11.4111 19.2652 11.3111C18.9613 11.2111 18.6273 11.3174 18.437 11.575L13.2387 18.6179C13.0725 18.843 13.0472 19.1425 13.1733 19.3922C13.2993 19.642 13.5554 19.7995 13.8351 19.7995H18.2921V22.3281C18.2921 22.7375 18.624 23.0694 19.0334 23.0694ZM15.3037 18.3169L18.2921 14.2681V18.3169H15.3037Z" fill="#F48137"/>
<path d="M5.50291 21.388C5.29287 21.6007 5.23109 21.9189 5.34644 22.1948C5.46179 22.4707 5.73144 22.6503 6.03044 22.6503H12.5703C12.9797 22.6503 13.3116 22.3184 13.3116 21.9089C13.3116 21.4995 12.9797 21.1676 12.5703 21.1676H7.80421L11.7118 17.2099C12.7144 16.1944 12.9993 14.7363 12.4552 13.4044C11.9278 12.1131 10.7442 11.297 9.36634 11.2747C9.3444 11.2744 9.32236 11.2742 9.30041 11.2742C7.08857 11.2742 5.28911 13.0736 5.28911 15.2855C5.28911 15.6949 5.62103 16.0268 6.03044 16.0268C6.43986 16.0268 6.77178 15.6949 6.77178 15.2855C6.77178 13.8912 7.90612 12.7568 9.30041 12.7568L9.34242 12.7571C10.1283 12.7699 10.7789 13.2214 11.0827 13.965C11.3301 14.5709 11.3483 15.4679 10.6568 16.1683L5.50291 21.388Z" fill="#F48137"/>
<path d="M27.9753 23.0695C28.3848 23.0695 28.7166 22.7376 28.7166 22.3282V20.9052C28.7166 19.4666 27.5462 18.2962 26.1076 18.2962H26.0698C25.6667 18.2962 25.2848 18.3882 24.9436 18.5521V14.9774C24.9436 14.568 24.6118 14.2361 24.2023 14.2361C23.7928 14.2361 23.4609 14.568 23.4609 14.9774V20.9052V22.3282C23.4609 22.7376 23.7928 23.0695 24.2023 23.0695C24.6118 23.0695 24.9436 22.7376 24.9436 22.3282V20.9052C24.9436 20.2842 25.4488 19.7789 26.0698 19.7789H26.1076C26.7286 19.7789 27.2339 20.2842 27.2339 20.9052V22.3282C27.2339 22.7376 27.5658 23.0695 27.9753 23.0695Z" fill="#F48137"/>
</g>
<defs>
<clipPath id="clip0_768_2683">
<rect width="34" height="34" fill="white"/>
</clipPath>
</defs>
</svg>
