<svg width="147" height="27" viewBox="0 0 147 27" fill="none" xmlns="http://www.w3.org/2000/svg">
<path d="M59.9598 16.8705L56.8277 15.6811C56.233 15.463 55.8167 15.2648 55.5788 15.0467C55.3409 14.8485 55.222 14.5512 55.222 14.1547C55.222 13.9168 55.2616 13.7186 55.3211 13.5798C55.3806 13.441 55.4995 13.3419 55.6581 13.2626C55.8167 13.1833 56.0149 13.1437 56.2726 13.1239C56.5303 13.104 56.8277 13.0842 57.2043 13.0842C58.1955 13.0842 59.2065 13.0842 60.2373 13.1041C61.2681 13.1239 62.1404 13.1437 62.854 13.1437L63.1514 10.1504C62.18 9.83318 61.169 9.63495 60.1382 9.53584C59.1074 9.43672 58.1559 9.37725 57.3034 9.35742C56.114 9.35742 55.103 9.43672 54.2705 9.59531C53.4181 9.75389 52.7441 10.0116 52.2485 10.3684C51.7331 10.7252 51.3564 11.2208 51.1185 11.8353C50.8807 12.4499 50.7617 13.2626 50.7617 14.2538C50.7617 15.5027 51.0392 16.5137 51.5943 17.2868C52.1494 18.0599 53.0811 18.7141 54.4092 19.2691L57.7594 20.6171C58.0964 20.7361 58.3739 20.855 58.5721 20.9541C58.7704 21.0731 58.9091 21.2118 58.9884 21.3704C59.0677 21.529 59.1074 21.7471 59.1074 22.0246C59.1074 22.3219 59.0479 22.54 58.929 22.6986C58.81 22.8572 58.6118 22.9563 58.3144 23.0158C58.0171 23.0752 57.6008 23.095 57.0457 23.095C56.7286 23.095 56.2726 23.095 55.7176 23.0752C55.1625 23.0752 54.5083 23.0554 53.755 23.0356C53.0018 23.0157 52.1295 22.9959 51.1582 22.9761L50.9005 26.2271C52.2683 26.5641 53.5172 26.7822 54.6075 26.8615C55.6977 26.9408 56.5303 26.9804 57.1052 26.9804C58.3343 26.9804 59.3651 26.8813 60.1977 26.7029C61.0302 26.5245 61.7042 26.247 62.2196 25.8703C62.7351 25.4937 63.0919 24.9783 63.3298 24.3241C63.5478 23.6699 63.6668 22.8572 63.6668 21.9056C63.6668 20.6369 63.3892 19.6061 62.854 18.8132C62.2791 18.0797 61.3276 17.4057 59.9598 16.8705Z" fill="#FFF9F1"/>
<path d="M70.5484 13.441C70.7467 13.2626 71.0242 13.1239 71.381 13.1239H77.6452L77.8633 9.87283C77.0703 9.77372 76.1981 9.67461 75.2466 9.63496C74.2951 9.59532 73.3435 9.55566 72.3524 9.55566C71.381 9.55566 70.4097 9.55566 69.478 9.55566C68.3678 9.55566 67.4362 9.93231 66.7423 10.5865C66.0485 11.2407 65.6719 12.1724 65.6719 13.2626V23.095C65.6719 24.1853 66.0485 25.0576 66.7423 25.7316C67.4362 26.4056 68.348 26.7426 69.478 26.7426C70.4097 26.7426 71.381 26.7426 72.3722 26.7227C73.3435 26.7227 74.3149 26.6831 75.2664 26.6434C76.2179 26.6038 77.0902 26.5642 77.8831 26.4849L77.665 23.214H71.4008C71.044 23.214 70.7467 23.095 70.5682 22.8968C70.37 22.7184 70.2709 22.4211 70.2709 22.1039V19.4674H76.8126V16.2956H70.2709V14.2538C70.2511 13.9366 70.37 13.6393 70.5484 13.441Z" fill="#FFF9F1"/>
<path d="M92.2901 19.9231C91.9928 19.5465 91.636 19.2888 91.2791 19.1302C90.9223 18.9716 90.6646 18.8725 90.2681 18.8328V18.6742C91.0611 18.5751 91.8144 18.3372 92.2901 17.9804C92.7857 17.6038 93.1425 17.128 93.3408 16.5333C93.539 15.9386 93.6579 15.2844 93.6579 14.5708C93.6579 13.2426 93.4399 12.2118 92.9641 11.4783C92.5082 10.7449 91.7747 10.2295 90.7835 9.91228C89.7924 9.5951 88.5237 9.43652 86.9378 9.43652C85.8872 9.43652 84.9753 9.43652 84.222 9.45634C83.4687 9.45634 82.7749 9.47616 82.1604 9.51581C81.526 9.55546 80.7529 9.61493 80.1582 9.69423V26.6036H84.5194V20.2601C85.1141 20.2601 85.8872 20.2799 86.6801 20.2799C87.1559 20.2799 87.5325 20.3592 87.7704 20.5376C88.0083 20.716 88.2065 21.0332 88.3254 21.5486L89.5347 26.6036H94.3319L92.9443 21.4099C92.8055 20.7557 92.5875 20.2997 92.2901 19.9231ZM88.8805 16.1368C88.7417 16.4342 88.5237 16.6324 88.2065 16.7315C87.8893 16.8505 87.4334 16.8703 86.8585 16.8703H84.5194V12.7867C85.3123 12.7867 86.0061 12.7867 86.799 12.7867C87.3739 12.7867 87.8497 12.8461 88.1669 12.9651C88.484 13.084 88.7219 13.2823 88.8409 13.5796C88.9796 13.877 89.0391 14.2933 89.0391 14.8483C89.0589 15.4232 88.9994 15.8395 88.8805 16.1368Z" fill="#FFF9F1"/>
<path d="M103.238 21.3109C103.179 21.6281 103.099 21.9453 103.04 22.2823C102.98 22.6193 102.921 22.8571 102.861 23.2536H102.287C102.247 22.8571 102.187 22.5994 102.108 22.2823C102.049 21.9453 101.969 21.6479 101.91 21.3307L99.3329 9.77368H94.6348L98.9563 25.454C99.0356 25.8307 99.214 26.0883 99.5113 26.3262C99.7888 26.5641 100.146 26.6236 100.542 26.6236H104.606C105.002 26.6236 105.339 26.5443 105.617 26.3064C105.894 26.0685 106.093 25.8108 106.192 25.4342L110.493 9.77368H105.795L103.238 21.3109Z" fill="#FFF9F1"/>
<path d="M116.634 9.75366H112.074V26.6036H116.634V9.75366Z" fill="#FFF9F1"/>
<path d="M129.322 23.0156C128.529 23.0552 127.558 23.0552 126.369 23.0552C125.695 23.0552 125.179 22.9164 124.803 22.6389C124.426 22.3614 124.149 21.8658 124.01 21.172C123.871 20.4583 123.792 19.4672 123.792 18.1985C123.792 16.9298 123.871 15.9386 124.01 15.2249C124.149 14.5113 124.426 14.0356 124.803 13.758C125.179 13.4805 125.715 13.3417 126.369 13.3417C127.122 13.3417 127.756 13.3417 128.292 13.3616C128.827 13.3616 129.322 13.3814 129.798 13.3814C130.274 13.3814 130.77 13.4012 131.325 13.4408L131.662 10.051C131.146 9.91228 130.631 9.79334 130.135 9.71404C129.64 9.63475 129.104 9.57528 128.51 9.51581C127.915 9.47616 127.201 9.43652 126.349 9.43652C124.545 9.43652 123.118 9.71405 122.027 10.2889C120.957 10.8638 120.164 11.7757 119.688 13.0642C119.212 14.3329 118.975 16.0575 118.975 18.2183C118.975 20.379 119.212 22.1037 119.688 23.3724C120.164 24.6411 120.937 25.5728 122.027 26.1477C123.098 26.7225 124.545 27.0001 126.349 27.0001C127.618 27.0001 128.668 26.9406 129.521 26.8216C130.373 26.7027 131.206 26.5045 132.018 26.2269L131.681 22.857C130.888 22.9164 130.096 22.9759 129.322 23.0156Z" fill="#FFF9F1"/>
<path d="M139.553 23.2338C139.196 23.2338 138.918 23.1149 138.72 22.9166C138.522 22.7382 138.423 22.4409 138.423 22.1237V19.4674H144.964V16.2956H138.423V14.2538C138.423 13.9168 138.522 13.6393 138.72 13.441C138.918 13.2626 139.196 13.1239 139.553 13.1239H145.817L146.035 9.87283C145.242 9.77372 144.37 9.67461 143.418 9.63496C142.467 9.59532 141.515 9.55566 140.524 9.55566C139.553 9.55566 138.581 9.55566 137.65 9.55566C136.539 9.55566 135.608 9.93231 134.914 10.5865C134.22 11.2407 133.863 12.1724 133.863 13.2626V23.095C133.863 24.1853 134.22 25.0576 134.914 25.7316C135.608 26.4056 136.52 26.7426 137.65 26.7426C138.581 26.7426 139.553 26.7426 140.524 26.7227C141.495 26.7227 142.467 26.6831 143.418 26.6434C144.37 26.6038 145.242 26.5642 146.035 26.4849L145.817 23.214H139.553V23.2338Z" fill="#FFF9F1"/>
<path d="M5.80826 19.2089V17.4644C5.80826 16.8301 6.32366 16.2948 6.97784 16.2948H21.1714C22.3013 16.2948 23.2132 15.383 23.2132 14.253V2.04181C23.2132 0.931698 22.3013 0 21.1714 0H4.89638C3.78627 0 2.85457 0.911875 2.85457 2.04181V4.4008C2.85457 5.53073 3.76644 6.44261 4.89638 6.44261H16.2354C16.8697 6.44261 17.405 6.95802 17.405 7.61219V9.35665C17.405 9.991 16.8895 10.5262 16.2354 10.5262H2.04181C0.911874 10.5262 0 11.4381 0 12.568V24.7793C0 25.9092 0.911874 26.8211 2.04181 26.8211H21.1912C22.3212 26.8211 23.233 25.9092 23.233 24.7793V22.4599C23.233 21.33 22.3212 20.4181 21.1912 20.4181H6.99766C6.32367 20.3785 5.80826 19.8631 5.80826 19.2089Z" fill="#F38036"/>
<path d="M47.8734 13.401L44.0871 10.0905C43.5717 9.65435 43.2942 9.00017 43.2942 8.32618V2.39899C43.2942 1.09064 42.2435 0.0598145 40.955 0.0598145H27.039C25.7306 0.0598145 24.6602 1.11046 24.6602 2.41881V14.3327C24.6602 15.423 25.572 16.3348 26.6623 16.3348H31.2217H41.9858C42.1642 16.3348 42.303 16.4736 42.303 16.652V19.8634C42.303 20.1013 42.1246 20.2995 41.9065 20.2995H32.9463H31.2217H26.6623C25.572 20.2995 24.6602 21.1717 24.6602 22.262V24.4228C24.6602 25.7311 25.7306 26.8016 27.039 26.8016H34.552H43.2942H46.3668C47.6355 26.8016 48.6465 25.751 48.6465 24.5021V15.1653C48.6465 14.4913 48.3888 13.8371 47.8734 13.401ZM37.1489 10.1499C37.1489 10.368 36.9705 10.5464 36.7524 10.5464H31.4001C31.1821 10.5464 31.0036 10.368 31.0036 10.1499V6.77996C31.0036 6.5619 31.1821 6.38349 31.4001 6.38349H36.7524C36.9705 6.38349 37.1489 6.5619 37.1489 6.77996V10.1499Z" fill="#FFF9F1"/>
</svg>
